# xmcd
#
# Track frame offsets:
#	150
#	17926
#	31959
#	49459
#	66065
#	85392
#	102257
#	120324
#	138242
#	157256
#	177003
#	194828
#
# Disc length: 2804 seconds
#
# Revision: 0
# Processed by: cddbd v1.5.2PL0 Copyright (c) Steve Scherf et al.
# Submitted via: EZCDAudioConverter 7.0.0.1
#
DISCID=a80af20c
DTITLE=Varios - Café de Autor
DYEAR=1900
DGENRE=
TTITLE0=Fernando Delgadillo - Llueve
TTITLE1=Haydée Milanés - Puente de amor
TTITLE2=Jesús Garriga - Una Flor En El Desierto
TTITLE3=Edgar Oceransky - Llega Cada Noche
TTITLE4=Miguel Inzunza - Ay soledad
TTITLE5=Reyli Barba - No Me Hace Falta Nada Más
TTITLE6=Rodrigo Rojas - Que bien se ve
TTITLE7=Raúl Ornelas - Deteniendo el tiempo
TTITLE8=Cristina Narea - La Casa Azul
TTITLE9=Leonel Soto - Tres Metros Sobre Tierra
TTITLE10=Arre Lulú - Y te siento
TTITLE11=Concetta Costanzo - Para Que Pienses En Mí
EXTD=
EXTT0=
EXTT1=
EXTT2=
EXTT3=
EXTT4=
EXTT5=
EXTT6=
EXTT7=
EXTT8=
EXTT9=
EXTT10=
EXTT11=
PLAYORDER=
